<svg t="1724352817853" class="icon" viewBox="0 0 1024 1024" version="1.1" xmlns="http://www.w3.org/2000/svg" p-id="970" width="200" height="200"><path d="M822.2 744.6h-24.4V478.1c0-24.8-14.4-47.8-36.6-58.6l-174-84.5V233.7c0-22.4-11.3-42.9-30.2-54.9-18.8-12-42.2-13.5-62.4-4.1L269.1 279.9c-22.8 10.7-37.6 33.8-37.6 59v405.7h-34.1c-12.9 0-23.3 10.4-23.3 23.3s10.4 23.3 23.3 23.3h624.8c12.9 0 23.3-10.4 23.3-23.3s-10.4-23.3-23.3-23.3zM278.1 338.9c0-7.2 4.2-13.8 10.7-16.8l225.5-105.2c8.3-3.9 15.2-0.5 17.7 1.1s8.6 6.4 8.6 15.6v510.9H278.1V338.9z m309.1 405.7V386.8l153.7 74.6c6.3 3.1 10.4 9.6 10.4 16.6v266.5H587.2z" p-id="971"></path><path d="M472.8 404.7H347.3c-12.9 0-23.3 10.4-23.3 23.3s10.4 23.3 23.3 23.3h125.5c12.9 0 23.3-10.4 23.3-23.3 0-12.8-10.4-23.3-23.3-23.3zM472.8 564.9H347.3c-12.9 0-23.3 10.4-23.3 23.3s10.4 23.3 23.3 23.3h125.5c12.9 0 23.3-10.4 23.3-23.3s-10.4-23.3-23.3-23.3z" p-id="972"></path></svg>